<?xml version="1.0" encoding="utf-8"?>
<!-- Generator: Adobe Illustrator 28.0.0, SVG Export Plug-In . SVG Version: 6.00 Build 0)  -->
<svg version="1.1" id="Capa_1" xmlns="http://www.w3.org/2000/svg" xmlns:xlink="http://www.w3.org/1999/xlink" x="0px" y="0px"
	 viewBox="0 0 86.8 86.8" style="enable-background:new 0 0 86.8 86.8;" xml:space="preserve">
<style type="text/css">
	.st0{fill:#FFFFFF;}
</style>
<path class="st0" d="M16.4,26.7c0.5,0,0.8-0.4,0.8-0.8v-9.2h1.1v21.8c0,1.3,0.9,2.5,2.1,2.8v1.8c0,0.5,0.4,0.8,0.8,0.8
	s0.8-0.4,0.8-0.8v-1.8c1.2-0.4,2.1-1.5,2.1-2.8V13.7c0-1-0.8-1.8-1.8-1.8h-2.3c-1,0-1.8,0.8-1.8,1.8V15h-1.9c-0.5,0-0.8,0.4-0.8,0.8
	v10.1C15.6,26.3,15.9,26.7,16.4,26.7z M22.6,27.3H20v-4.5h2.6V27.3z M21.3,39.7c-0.7,0-1.3-0.6-1.3-1.3V29h2.6v9.5
	C22.6,39.2,22,39.7,21.3,39.7z M20,13.7c0-0.1,0-0.1,0.1-0.1h2.4c0.1,0,0.1,0.1,0.1,0.1v7.5H20C20,21.2,20,13.7,20,13.7z"/>
<path class="st0" d="M61.5,40c-0.3-0.4-1-0.4-1.3,0l-6.9,8.3c-0.1,0.2-0.2,0.3-0.2,0.5V68c0,1.5,1.2,2.7,2.7,2.7h9.9
	c1.5,0,2.7-1.2,2.7-2.7V48.8c0-0.2-0.1-0.4-0.2-0.5C68.4,48.3,61.5,40,61.5,40z M66.9,68c0,0.6-0.5,1.1-1.1,1.1h-9.9
	c-0.6,0-1.1-0.5-1.1-1.1V49.1l6-7.3l6,7.3V68z"/>
<path class="st0" d="M64.3,65.5h-7c-0.5,0-0.8,0.4-0.8,0.8s0.4,0.8,0.8,0.8h7c0.5,0,0.8-0.4,0.8-0.8S64.8,65.5,64.3,65.5z"/>
<path class="st0" d="M56.5,63c0,0.5,0.4,0.8,0.8,0.8h7c0.5,0,0.8-0.4,0.8-0.8s-0.4-0.8-0.8-0.8h-7C56.9,62.1,56.5,62.5,56.5,63z"/>
<path class="st0" d="M57.9,48.7c0,1.6,1.3,2.9,2.9,2.9s2.9-1.3,2.9-2.9s-1.3-2.9-2.9-2.9S57.9,47.1,57.9,48.7z M62.1,48.7
	c0,0.7-0.6,1.3-1.3,1.3s-1.3-0.6-1.3-1.3s0.6-1.3,1.3-1.3S62.1,48,62.1,48.7z"/>
<path class="st0" d="M33.4,25.1h24.9c0.5,0,0.8-0.4,0.8-0.8s-0.4-0.8-0.8-0.8H33.4c-0.5,0-0.8,0.4-0.8,0.8S33,25.1,33.4,25.1z"/>
<path class="st0" d="M68.2,35H45.9c-0.5,0-0.8,0.4-0.8,0.8s0.4,0.8,0.8,0.8h22.2c0.5,0,0.8-0.4,0.8-0.8C69,35.4,68.7,35,68.2,35z"/>
<path class="st0" d="M33.4,36.7h8.2c0.5,0,0.8-0.4,0.8-0.8S42.1,35,41.6,35h-8.2c-0.5,0-0.8,0.4-0.8,0.8S33,36.7,33.4,36.7z"/>
<path class="st0" d="M33.4,30.9h34.8c0.5,0,0.8-0.4,0.8-0.8s-0.4-0.8-0.8-0.8H33.4c-0.5,0-0.8,0.4-0.8,0.8S33,30.9,33.4,30.9z"/>
<path class="st0" d="M54.4,41.6c0-0.5-0.4-0.8-0.8-0.8H33.4c-0.5,0-0.8,0.4-0.8,0.8s0.4,0.8,0.8,0.8h20.1
	C54,42.5,54.4,42.1,54.4,41.6z"/>
<path class="st0" d="M35.5,20.7c1.6,0,2.9-1.3,2.9-2.9s-1.3-2.9-2.9-2.9s-2.9,1.3-2.9,2.9S33.9,20.7,35.5,20.7z M35.5,16.5
	c0.7,0,1.3,0.6,1.3,1.3s-0.6,1.3-1.3,1.3s-1.3-0.6-1.3-1.3C34.3,17.1,34.8,16.5,35.5,16.5z"/>
<path class="st0" d="M41.4,18.8h16.9c0.5,0,0.8-0.4,0.8-0.8s-0.4-0.8-0.8-0.8H41.4c-0.5,0-0.8,0.4-0.8,0.8S40.9,18.8,41.4,18.8z"/>
<path class="st0" d="M16,70.7h11.8v0.5c0,2,1.6,3.7,3.7,3.7h39.3c2,0,3.7-1.7,3.7-3.7V22.8c0,0,0,0,0,0c0-0.1,0-0.1,0-0.2
	c0,0,0,0,0-0.1c0-0.1-0.1-0.2-0.2-0.2L64.1,12.1C64,12.1,63.9,12,63.8,12c0,0,0,0-0.1,0c-0.1,0-0.1,0-0.2,0c0,0,0,0,0,0h-32
	c-2,0-3.7,1.6-3.7,3.7v30.2H16c-0.2,0-0.4,0-0.7,0.1c-0.7,0.1-1.3,0.4-1.8,0.9c-0.8,0.7-1.2,1.7-1.2,2.7V67c0,1.1,0.5,2.1,1.3,2.8
	C14.3,70.4,15.1,70.7,16,70.7L16,70.7z M27.4,58.8l-13.1,9.2c-0.2-0.3-0.3-0.7-0.3-1V49.4c0-0.3,0.1-0.7,0.2-0.9L27.4,58.8z
	 M15.8,69l12.9-9.1l1.4,1.1c0.1,0.1,0.3,0.2,0.5,0.2s0.4-0.1,0.5-0.2l1.4-1.1L45.4,69c-0.1,0-0.1,0-0.2,0H16C16,69,15.9,69,15.8,69z
	 M47,48.5c0.2,0.3,0.2,0.6,0.2,0.9V67c0,0.4-0.1,0.7-0.3,1l-13.1-9.2C33.9,58.8,47,48.5,47,48.5z M64.3,14.7l3.6,3.6l3.6,3.6h-5.2
	c-1.1,0-2-0.9-2-2L64.3,14.7L64.3,14.7L64.3,14.7z M29.5,15.6c0-1.1,0.9-2,2-2h31.2V20c0,2,1.6,3.7,3.7,3.7h6.4v47.5
	c0,1.1-0.9,2-2,2H31.5c-1.1,0-2-0.9-2-2v-0.5h15.8c0.7,0,1.4-0.2,2-0.6c0.1-0.1,0.3-0.2,0.4-0.3l0,0c0.8-0.7,1.3-1.7,1.3-2.8V49.4
	c0-1-0.4-2-1.2-2.7c-0.7-0.6-1.6-1-2.5-1H29.4L29.5,15.6C29.4,15.6,29.5,15.6,29.5,15.6z M28.6,47.4h16.6c0.1,0,0.1,0,0.2,0
	c0.1,0,0.1,0,0.2,0c0,0,0,0,0,0l-15,11.8l-15-11.8h0c0.1,0,0.2,0,0.4,0L28.6,47.4L28.6,47.4z"/>
</svg>
