<?xml version="1.0" encoding="utf-8"?>
<!-- Generator: Adobe Illustrator 28.0.0, SVG Export Plug-In . SVG Version: 6.00 Build 0)  -->
<svg version="1.1" id="Capa_1" xmlns="http://www.w3.org/2000/svg" xmlns:xlink="http://www.w3.org/1999/xlink" x="0px" y="0px"
	 viewBox="0 0 86.8 86.8" style="enable-background:new 0 0 86.8 86.8;" xml:space="preserve">
<style type="text/css">
	.st0{fill:#FFFFFF;}
</style>
<path class="st0" d="M15.5,30c-2.1,0-3.7,1.7-3.7,3.7v36.4c0,2,1.7,3.7,3.7,3.7h55.7c2.1,0,3.7-1.7,3.7-3.7V33.7
	c0-2-1.7-3.7-3.7-3.7h-5.7l5.8-10.2l0,0l1.1-1.9c0.4-0.8,0.5-1.6,0.3-2.5s-0.8-1.5-1.5-2c-1.6-0.9-3.6-0.3-4.4,1.2l-1.1,1.9l0,0
	L58.1,30C58.1,30,15.5,30,15.5,30z M51,68.2l-2.4-3.2l6.1-5.9l9.4,9.1C64,68.2,50.9,68.2,51,68.2z M48.9,68.2H29.3L39.1,55
	L48.9,68.2z M66.4,68.3L55.3,57.4c-0.3-0.3-0.8-0.3-1.2,0l-6.5,6.3l-7.8-10.6c-0.3-0.4-1-0.4-1.3,0L27.3,68.3h-1.9
	c-0.6,0-1.1-0.5-1.1-1.1V36.5c0-0.6,0.5-1.1,1.1-1.1H55l-0.4,0.8l0,0l-1.2,2.1c-0.1,0.1-0.1,0.3-0.1,0.4l-0.1,4.9L53,43.8
	c-0.2,0.4-0.1,0.9,0.3,1.1c0.1,0.1,0.3,0.1,0.4,0.1c0.3,0,0.6-0.2,0.7-0.4l0.1-0.2l4.2-2.6c0.1-0.1,0.2-0.2,0.3-0.3l1.2-2.1l2.3-4
	h5.9c0.6,0,1.1,0.5,1.1,1.1v30.6c0,0.6-0.5,1.1-1.1,1.1L66.4,68.3L66.4,68.3z M57.2,35l1.9-3.4l7.7-13.5l2.8,1.6l-6.1,10.7l0,0
	l-0.3,0.5l-3.8,6.8c-0.8-0.8-1.7-1.3-2.8-1.6L57.2,35L57.2,35z M54.9,39l0.8-1.4c1.1,0.2,2,0.7,2.8,1.6l-0.8,1.4l-2.8,1.8L54.9,39z
	 M70.4,14.9c0.4,0.2,0.6,0.6,0.7,1c0.1,0.4,0.1,0.8-0.2,1.2l-0.7,1.1l-2.8-1.6l0.7-1.1C68.7,14.7,69.7,14.5,70.4,14.9z M13.5,33.7
	c0-1.1,0.9-2,2-2h41.6l-1.2,2.1H25.4c-1.5,0-2.8,1.2-2.8,2.8v30.6c0,1.5,1.2,2.8,2.8,2.8h43c1.5,0,2.8-1.2,2.8-2.8V36.5
	c0-1.5-1.2-2.8-2.8-2.8h-5l1.2-2.1h6.6c1.1,0,2,0.9,2,2v36.4c0,1.1-0.9,2-2,2H15.5c-1.1,0-2-0.9-2-2C13.5,70.1,13.5,33.7,13.5,33.7z
	"/>
<path class="st0" d="M17.8,54.7c1.6,0,2.8-1.3,2.8-2.8S19.3,49,17.8,49s-2.8,1.3-2.8,2.8S16.2,54.7,17.8,54.7z M17.8,50.7
	c0.6,0,1.2,0.5,1.2,1.2S18.4,53,17.8,53s-1.2-0.5-1.2-1.2S17.1,50.7,17.8,50.7z"/>
<path class="st0" d="M15.8,46.1h4c0.5,0,0.8-0.4,0.8-0.8s-0.4-0.8-0.8-0.8h-4c-0.5,0-0.8,0.4-0.8,0.8S15.3,46.1,15.8,46.1z"/>
<path class="st0" d="M15.8,41.9h4c0.5,0,0.8-0.4,0.8-0.8s-0.4-0.8-0.8-0.8h-4c-0.5,0-0.8,0.4-0.8,0.8S15.3,41.9,15.8,41.9z"/>
<path class="st0" d="M15.8,37.7h4c0.5,0,0.8-0.4,0.8-0.8S20.2,36,19.8,36h-4c-0.5,0-0.8,0.4-0.8,0.8S15.3,37.7,15.8,37.7z"/>
<path class="st0" d="M15.8,67.7h4c0.5,0,0.8-0.4,0.8-0.8s-0.4-0.8-0.8-0.8h-4c-0.5,0-0.8,0.4-0.8,0.8S15.3,67.7,15.8,67.7z"/>
<path class="st0" d="M15.8,63.5h4c0.5,0,0.8-0.4,0.8-0.8s-0.4-0.8-0.8-0.8h-4c-0.5,0-0.8,0.4-0.8,0.8S15.3,63.5,15.8,63.5z"/>
<path class="st0" d="M15.8,59.3h4c0.5,0,0.8-0.4,0.8-0.8s-0.4-0.8-0.8-0.8h-4c-0.5,0-0.8,0.4-0.8,0.8S15.3,59.3,15.8,59.3z"/>
<path class="st0" d="M48.1,52.4c-1.5,0-2.8,1.3-2.8,2.8s1.3,2.8,2.8,2.8s2.8-1.3,2.8-2.8S49.7,52.4,48.1,52.4z M48.1,56.3
	c-0.6,0-1.1-0.5-1.1-1.1s0.5-1.1,1.1-1.1s1.1,0.5,1.1,1.1S48.8,56.3,48.1,56.3z"/>
</svg>
