<?xml version="1.0" encoding="utf-8"?>
<!-- Generator: Adobe Illustrator 28.0.0, SVG Export Plug-In . SVG Version: 6.00 Build 0)  -->
<svg version="1.1" id="Capa_1" xmlns="http://www.w3.org/2000/svg" xmlns:xlink="http://www.w3.org/1999/xlink" x="0px" y="0px"
	 viewBox="0 0 86.8 86.8" style="enable-background:new 0 0 86.8 86.8;" xml:space="preserve">
<style type="text/css">
	.st0{fill:#FFFFFF;}
</style>
<path class="st0" d="M73.5,59h-3V24c0-3.1-2.5-5.6-5.6-5.6H49.1c-0.6-1.2-1.3-2.2-2.2-3.2l-2.2-2.5c-0.8-0.9-2.4-0.9-3.2,0l-2.2,2.5
	c-0.9,1-1.6,2.1-2.2,3.2H21.3c-3.1,0-5.6,2.5-5.6,5.6v35h-3c-0.5,0-0.8,0.4-0.8,0.8v3.1c0,2.6,2.1,4.6,4.6,4.6h53.2
	c2.6,0,4.6-2.1,4.6-4.6v-3.1C74.3,59.3,73.9,59,73.5,59L73.5,59z M50.8,37l2.4,0.8c0.2,0.1,0.4,0.1,0.5,0.1c0.4,0,0.8-0.1,1.1-0.3
	c0.5-0.3,0.8-0.9,0.8-1.5v-3.4c0-0.4-0.2-0.9-0.5-1.2l-4.2-4.8v-1c0-0.6,0-1.2-0.1-1.8H64c0.6,0,1.1,0.5,1.1,1.1v30.2h-6.8
	c-0.1-2.7-2.3-4.8-5-4.8c0,0,0,0,0,0c0.1-0.3,0.1-0.6,0.1-1c0-2.7-2-4.9-4.7-5.2c-0.5-0.1-0.9,0.3-0.9,0.7c0,0.5,0.3,0.9,0.7,0.9
	c1.8,0.2,3.2,1.7,3.2,3.5c0,1.3-0.7,2.5-1.9,3.2c-0.4,0.2-0.6,0.7-0.3,1.1c0.2,0.3,0.4,0.5,0.8,0.5c0.1,0,0.3,0,0.4-0.1
	c0.9-0.5,1.6-1.1,2-2c0,0,0.1,0,0.1,0c0.2,0,0.4,0,0.6,0c1.8,0,3.2,1.4,3.3,3.1h-27c0.1-1.7,1.5-3.1,3.3-3.1c0.2,0,0.4,0,0.6,0
	c0,0,0.1,0,0.1,0c0.5,0.8,1.2,1.5,2,2c0.1,0.1,0.3,0.1,0.4,0.1c0.3,0,0.6-0.2,0.8-0.5c0.2-0.4,0.1-0.9-0.3-1.1
	c-1.2-0.6-1.9-1.8-1.9-3.2c0-1.8,1.3-3.3,3.2-3.5c0.5,0,0.8-0.5,0.7-0.9c0-0.5-0.5-0.8-0.9-0.7c-2.7,0.3-4.7,2.5-4.7,5.2
	c0,0.3,0,0.6,0.1,1c0,0,0,0,0,0c-2.7,0-4.9,2.2-5,4.8h-6.7V24.9c0-0.6,0.5-1.1,1.1-1.1h13.2c-0.1,0.6-0.1,1.2-0.1,1.8v1l-4.2,4.8
	c-0.3,0.3-0.5,0.8-0.5,1.2V36c0,0.6,0.3,1.1,0.8,1.5c0.3,0.2,0.7,0.3,1.1,0.3c0.2,0,0.4,0,0.5-0.1l2.4-0.8c0.2,0.8,0.7,1.5,1.4,1.9
	c0.5,0.3,0.7,0.8,0.7,1.3v1.8c0,0.9,0.7,1.6,1.6,1.6h0.5c0.2,2,1.2,3.8,2.9,5.2c0.2,0.1,0.3,0.2,0.5,0.2s0.4-0.1,0.5-0.2
	c1.7-1.4,2.7-3.2,2.9-5.2H47c0.9,0,1.6-0.7,1.6-1.6v-1.8c0-0.5,0.3-1,0.7-1.3C50,38.4,50.5,37.8,50.8,37L50.8,37z M50.9,35.2v-6
	l2.9,3.3c0,0,0,0,0,0.1V36c0,0,0,0.1,0,0.1c0,0-0.1,0-0.1,0C53.6,36.1,50.9,35.2,50.9,35.2z M49.2,25.7v10.5c0,0.5-0.3,1-0.7,1.3
	c-0.7,0.4-1.2,1.1-1.4,1.9h-7.9c-0.2-0.8-0.7-1.5-1.4-1.9c-0.5-0.3-0.7-0.8-0.7-1.3V25.7c0-1.2,0.2-2.4,0.5-3.6h11.3
	C49,23.2,49.2,24.5,49.2,25.7z M39.2,41.9v-0.9H47l0,0.8L39.2,41.9z M44.8,43.6C44.6,44.8,44,46,43.1,47c-0.9-1-1.5-2.2-1.7-3.4
	H44.8z M35.3,29.2v6l-2.8,0.9c0,0-0.1,0-0.1,0c0,0,0-0.1,0-0.1v-3.4C32.4,32.6,35.3,29.2,35.3,29.2z M40.6,16.3l2.2-2.5
	c0.1-0.1,0.2-0.1,0.3-0.1s0.2,0,0.3,0.1l2.2,2.5c1.1,1.2,1.9,2.6,2.5,4.1H38C38.6,18.9,39.5,17.5,40.6,16.3z M17.4,24
	c0-2.2,1.8-3.9,3.9-3.9h15.1c-0.1,0.3-0.2,0.5-0.3,0.8c0,0,0,0,0,0.1c-0.1,0.4-0.2,0.8-0.3,1.2H22.2c-1.5,0-2.7,1.2-2.7,2.7V56
	c0,0.5,0.4,0.8,0.8,0.8h45.5c0.5,0,0.8-0.4,0.8-0.8V24.9c0-1.5-1.2-2.7-2.7-2.7H50.5c-0.1-0.4-0.2-0.8-0.3-1.2c0,0,0,0,0-0.1
	c-0.1-0.3-0.2-0.5-0.3-0.8h15.1c2.2,0,3.9,1.8,3.9,3.9v35H49.6c-0.3,0-0.6,0.2-0.8,0.5l-0.9,1.9h-9.7l-1-1.9
	c-0.1-0.3-0.4-0.5-0.7-0.5H17.3L17.4,24L17.4,24z M72.6,62.9c0,1.6-1.3,3-3,3H16.5c-1.6,0-3-1.3-3-3v-2.3H36l1,1.9
	c0.1,0.3,0.4,0.5,0.8,0.5h10.8c0.3,0,0.6-0.2,0.8-0.5l0.9-1.9h22.5C72.7,60.6,72.7,62.9,72.6,62.9z"/>
<path class="st0" d="M19.3,62.6h-1.5c-0.5,0-0.8,0.4-0.8,0.8s0.4,0.8,0.8,0.8h1.5c0.5,0,0.8-0.4,0.8-0.8S19.7,62.6,19.3,62.6z"/>
<path class="st0" d="M23.8,62.6h-1.5c-0.5,0-0.8,0.4-0.8,0.8s0.4,0.8,0.8,0.8h1.5c0.5,0,0.8-0.4,0.8-0.8S24.3,62.6,23.8,62.6z"/>
<path class="st0" d="M43.1,31.2c2.1,0,3.9-1.7,3.9-3.9s-1.7-3.9-3.9-3.9s-3.9,1.7-3.9,3.9S41,31.2,43.1,31.2z M43.1,25.2
	c1.2,0,2.2,1,2.2,2.2s-1,2.2-2.2,2.2s-2.2-1-2.2-2.2S41.9,25.2,43.1,25.2z"/>
</svg>
