<?xml version="1.0" encoding="utf-8"?>
<!-- Generator: Adobe Illustrator 28.0.0, SVG Export Plug-In . SVG Version: 6.00 Build 0)  -->
<svg version="1.1" id="Capa_1" xmlns="http://www.w3.org/2000/svg" xmlns:xlink="http://www.w3.org/1999/xlink" x="0px" y="0px"
	 viewBox="0 0 86.8 86.8" style="enable-background:new 0 0 86.8 86.8;" xml:space="preserve">
<style type="text/css">
	.st0{fill:#FFFFFF;}
</style>
<path class="st0" d="M66.3,74.9c2.2,0,3.9-1.8,3.9-3.9V15.9c0-2.2-1.8-3.9-3.9-3.9H20.5c-2.2,0-4,1.8-4,3.9v55.1
	c0,2.2,1.8,3.9,4,3.9C20.5,74.9,66.3,74.9,66.3,74.9z M18.2,15.9c0-1.3,1-2.3,2.3-2.3h45.7c1.3,0,2.3,1,2.3,2.3v7H18.2
	C18.2,22.9,18.2,15.9,18.2,15.9z M18.2,70.9V24.6h50.3v46.4c0,1.3-1,2.3-2.3,2.3H20.5C19.3,73.2,18.2,72.2,18.2,70.9z"/>
<path class="st0" d="M29.6,15.8h-7.9c-0.5,0-0.8,0.4-0.8,0.8s0.4,0.8,0.8,0.8h7.9c0.5,0,0.8-0.4,0.8-0.8S30.1,15.8,29.6,15.8z"/>
<path class="st0" d="M29.6,19h-7.9c-0.5,0-0.8,0.4-0.8,0.8s0.4,0.8,0.8,0.8h7.9c0.5,0,0.8-0.4,0.8-0.8S30.1,19,29.6,19z"/>
<path class="st0" d="M64.5,19.3H45c-0.5,0-0.8,0.4-0.8,0.8S44.5,21,45,21h19.5c0.5,0,0.8-0.4,0.8-0.8C65.3,19.7,64.9,19.3,64.5,19.3
	z"/>
<path class="st0" d="M22,42.4h13.5c0.5,0,0.8-0.4,0.8-0.8V28c0-0.5-0.4-0.8-0.8-0.8H22c-0.5,0-0.8,0.4-0.8,0.8v13.5
	C21.2,42,21.6,42.4,22,42.4z M22.9,28.9h11.9v11.9H22.9V28.9z"/>
<path class="st0" d="M39.4,41.8c0,0,0,0.1,0,0.2c0,0,0,0,0,0c0,0.1,0.1,0.1,0.1,0.2c0,0,0,0,0,0c0.1,0.1,0.1,0.1,0.2,0.2
	c0,0,0,0,0.1,0c0.1,0,0.2,0.1,0.3,0.1h24.6c0.1,0,0.2,0,0.3-0.1c0,0,0.1,0,0.1,0c0.1,0,0.2-0.1,0.2-0.2c0,0,0,0,0,0
	c0.1,0,0.1-0.1,0.1-0.2c0,0,0,0,0,0c0,0,0-0.1,0.1-0.2s0-0.1,0-0.2c0,0,0,0,0,0V28.1c0,0,0,0,0,0c0-0.1,0-0.1,0-0.2
	c0,0,0-0.1-0.1-0.2c0,0,0,0,0,0c0,0-0.1,0-0.1-0.1c0,0-0.1-0.1-0.1-0.1c0,0-0.1-0.1-0.1-0.1s-0.1-0.1-0.2-0.1c-0.1,0-0.1,0-0.2,0
	c0,0-0.1,0-0.1,0H40.2c0,0-0.1,0-0.1,0c0,0-0.1,0-0.2,0s-0.1,0-0.2,0.1c0,0-0.1,0-0.1,0.1c0,0-0.1,0.1-0.1,0.1c0,0,0,0-0.1,0.1
	c0,0,0,0,0,0c0,0,0,0.1,0,0.2s0,0.1,0,0.2c0,0,0,0,0,0v13.5c0,0,0,0,0,0C39.3,41.7,39.3,41.7,39.4,41.8L39.4,41.8z M63.9,40.2
	l-9.7-5.3l9.7-5.4V40.2z M61.5,40.8H43.4l9-5L61.5,40.8z M52.5,33.9l-9-5h18.1L52.5,33.9z M50.7,34.8L41,40.2V29.5
	C41,29.5,50.7,34.8,50.7,34.8z"/>
<path class="st0" d="M21.3,58.8c0,0.1,0.1,0.2,0.1,0.2c0,0,0,0,0,0s0,0,0,0c0.1,0.1,0.1,0.1,0.2,0.2c0.1,0,0.2,0.1,0.3,0.1h11.6
	c0.5,0,0.8-0.4,0.8-0.8V46.8c0,0,0,0,0,0c0-0.1,0-0.2-0.1-0.3c0-0.1-0.1-0.2-0.2-0.2c0,0,0,0,0,0c0,0,0,0-0.1,0
	c-0.1-0.1-0.1-0.1-0.2-0.1c-0.1,0-0.2-0.1-0.3-0.1H22c-0.5,0-0.8,0.4-0.8,0.8v11.6c0,0,0,0,0,0C21.2,58.6,21.2,58.7,21.3,58.8z
	 M24.1,57.6l8.8-8.8v8.8H24.1z M31.6,47.7l-8.8,8.8v-8.8H31.6z"/>
<path class="st0" d="M36.8,58.8c0,0.1,0.1,0.2,0.2,0.2c0,0,0,0,0,0s0,0,0,0c0.1,0.1,0.1,0.1,0.2,0.2c0.1,0,0.2,0.1,0.3,0.1h11.6
	c0.5,0,0.8-0.4,0.8-0.8V46.8c0,0,0,0,0,0c0-0.1,0-0.2-0.1-0.3c0-0.1-0.1-0.2-0.2-0.2c0,0,0,0,0,0c0,0,0,0-0.1,0
	c-0.1-0.1-0.1-0.1-0.2-0.1c-0.1,0-0.2-0.1-0.3-0.1H37.6c-0.5,0-0.8,0.4-0.8,0.8v11.6c0,0,0,0,0,0C36.8,58.6,36.8,58.7,36.8,58.8
	L36.8,58.8z M39.6,57.6l8.8-8.8v8.8H39.6z M47.2,47.7l-8.8,8.8v-8.8H47.2z"/>
<path class="st0" d="M65.5,46.5c0-0.1-0.1-0.2-0.2-0.2c0,0,0,0,0,0c0,0,0,0-0.1,0c-0.1-0.1-0.1-0.1-0.2-0.1C65,46,64.9,46,64.7,46
	H53.1c-0.5,0-0.8,0.4-0.8,0.8v11.6c0,0,0,0,0,0c0,0.1,0,0.2,0.1,0.3c0,0.1,0.1,0.2,0.2,0.2c0,0,0,0,0,0s0,0,0,0
	c0.1,0.1,0.1,0.1,0.2,0.2c0.1,0,0.2,0.1,0.3,0.1h11.6c0.5,0,0.8-0.4,0.8-0.8V46.8c0,0,0,0,0,0C65.6,46.7,65.6,46.6,65.5,46.5z
	 M62.7,47.7L54,56.4v-8.8H62.7z M55.2,57.6l8.8-8.8v8.8H55.2z"/>
<path class="st0" d="M57.7,62.7H29.1c-0.5,0-0.8,0.4-0.8,0.8v6.1c0,0.5,0.4,0.8,0.8,0.8h28.6c0.5,0,0.8-0.4,0.8-0.8v-6.1
	C58.5,63.1,58.2,62.7,57.7,62.7z M56.9,68.8H29.9v-4.4h26.9V68.8z"/>
</svg>
